<?xml version="1.0" standalone="no"?>
<!DOCTYPE svg PUBLIC "-//W3C//DTD SVG 20010904//EN"
 "http://www.w3.org/TR/2001/REC-SVG-20010904/DTD/svg10.dtd">
<svg version="1.0" xmlns="http://www.w3.org/2000/svg"
 width="1120.000000pt" height="1120.000000pt" viewBox="0 0 1120.000000 1120.000000"
 preserveAspectRatio="xMidYMid meet">
<metadata>
Created by potrace 1.14, written by Peter Selinger 2001-2017
</metadata>
<g transform="translate(0.000000,1120.000000) scale(0.100000,-0.100000)"
fill="#000000" stroke="none">
<path d="M1655 11154 c22 -20 62 -54 88 -77 26 -23 65 -58 85 -77 33 -30 150
-135 202 -180 9 -8 48 -43 86 -77 38 -34 80 -71 93 -82 40 -35 162 -145 198
-178 19 -18 36 -33 38 -33 2 0 21 -17 43 -37 21 -21 67 -63 102 -93 35 -30 75
-66 90 -80 23 -21 101 -90 180 -160 42 -37 154 -138 184 -165 18 -16 58 -52
89 -79 31 -26 76 -67 101 -90 25 -22 68 -61 96 -86 28 -25 64 -56 79 -70 16
-14 63 -56 107 -95 43 -38 90 -81 105 -95 15 -14 50 -45 79 -70 29 -25 70 -61
91 -81 21 -20 64 -59 96 -86 32 -28 69 -62 83 -75 15 -12 54 -48 89 -78 35
-30 75 -66 90 -80 28 -27 150 -135 190 -169 35 -30 169 -151 213 -191 20 -19
58 -53 84 -75 26 -22 66 -58 90 -80 23 -22 64 -59 91 -82 26 -23 60 -52 74
-65 14 -13 54 -48 89 -78 34 -30 79 -71 99 -90 21 -19 64 -58 97 -86 32 -28
77 -68 99 -88 38 -35 143 -129 189 -169 35 -31 133 -119 182 -164 l46 -43
1963 0 1963 0 0 1820 0 1820 -4001 0 -4002 0 40 -36z"/>
<path d="M1588 7542 l-28 -3 0 -1760 c0 -1018 4 -1759 9 -1759 5 0 127 -117
272 -261 145 -143 287 -283 316 -310 28 -27 51 -49 49 -49 -2 0 51 -53 116
-117 350 -346 1516 -1500 2504 -2478 228 -226 414 -408 414 -405 0 3 9 -8 20
-25 11 -16 20 -27 20 -24 0 3 74 -69 165 -159 91 -91 166 -161 166 -156 1 5 2
902 3 1994 l1 1985 1950 3 1950 2 -61 58 c-75 70 -256 238 -294 272 -27 24
-173 159 -249 229 -134 124 -219 202 -237 218 -20 17 -200 183 -269 248 -18
17 -74 68 -125 115 -51 47 -118 109 -148 138 -30 28 -56 52 -58 52 -1 0 -20
17 -42 38 -21 20 -78 73 -127 117 -48 44 -115 106 -149 138 -34 32 -77 72 -96
89 -19 16 -78 69 -130 118 -52 49 -108 101 -125 116 -16 15 -75 69 -130 120
-55 51 -113 105 -130 120 -16 15 -75 69 -130 120 -55 51 -114 105 -131 121
-17 15 -75 69 -129 118 -53 50 -109 101 -124 114 -22 20 -72 66 -250 231 -15
14 -74 68 -131 120 -113 104 -154 142 -227 210 -49 46 -240 221 -300 274 l-32
29 -2038 1 c-1121 1 -2050 0 -2065 -2z"/>
</g>
</svg>
