<?xml version="1.0" standalone="no"?>
<!DOCTYPE svg PUBLIC "-//W3C//DTD SVG 20010904//EN"
 "http://www.w3.org/TR/2001/REC-SVG-20010904/DTD/svg10.dtd">
<svg version="1.0" xmlns="http://www.w3.org/2000/svg"
 width="700.000000pt" height="700.000000pt" viewBox="0 0 700.000000 700.000000"
 preserveAspectRatio="xMidYMid meet">
<metadata>
Created by potrace 1.14, written by Peter Selinger 2001-2017
</metadata>
<g transform="translate(0.000000,700.000000) scale(0.100000,-0.100000)"
fill="#000000" stroke="none">
<path d="M3298 6705 c-2 -2 -37 -6 -80 -9 -42 -4 -91 -9 -110 -11 -18 -3 -53
-8 -78 -11 -25 -3 -76 -12 -115 -19 -38 -8 -81 -16 -95 -19 -39 -6 -189 -45
-255 -66 -241 -74 -513 -197 -732 -329 -440 -267 -834 -666 -1094 -1106 -212
-360 -367 -799 -415 -1180 -2 -22 -7 -51 -9 -65 -26 -160 -26 -640 -1 -767 3
-12 7 -48 11 -80 3 -32 8 -65 10 -73 2 -8 7 -35 10 -60 10 -71 80 -335 118
-445 149 -433 391 -836 697 -1159 98 -103 187 -187 270 -256 41 -34 84 -70 96
-80 12 -9 72 -53 135 -97 198 -140 448 -275 669 -361 70 -27 197 -70 315 -105
79 -24 255 -62 330 -72 22 -3 58 -8 80 -12 130 -20 253 -28 450 -28 159 1 314
8 371 19 10 2 46 7 79 10 261 29 632 142 925 279 154 73 419 230 509 302 9 8
63 51 121 96 123 97 356 326 462 455 250 304 440 643 563 1006 39 115 91 302
101 363 3 22 8 43 10 46 3 5 15 74 29 174 4 22 8 51 10 64 26 154 26 609 0
781 -2 14 -7 50 -10 80 -4 30 -8 57 -10 60 -2 3 -6 24 -9 46 -9 56 -11 67 -36
169 -12 50 -23 97 -25 105 -10 48 -84 261 -122 355 -441 1082 -1446 1851
-2593 1980 -19 3 -55 7 -80 10 -48 7 -496 15 -502 10z m417 -589 c79 -8 209
-24 246 -31 13 -3 47 -9 74 -15 28 -6 59 -12 70 -14 73 -14 277 -81 396 -129
415 -170 819 -479 1079 -826 14 -18 34 -45 46 -59 89 -116 228 -364 297 -532
79 -190 149 -442 171 -610 3 -25 8 -54 10 -65 10 -50 19 -221 19 -345 0 -191
-12 -313 -49 -500 -31 -153 -25 -131 -68 -272 -97 -319 -291 -669 -511 -923
-233 -270 -497 -477 -810 -635 -208 -106 -483 -202 -665 -234 -19 -3 -46 -8
-59 -11 -178 -34 -465 -48 -671 -31 -234 19 -566 94 -715 160 -16 8 -41 17
-55 21 -42 12 -303 141 -366 181 -88 55 -167 107 -184 121 -176 138 -240 193
-339 293 -353 357 -597 810 -699 1300 -11 52 -23 118 -27 145 -3 28 -8 57 -10
65 -23 90 -23 545 1 664 2 11 7 41 10 66 3 25 15 86 25 135 11 50 22 101 25
115 11 56 70 232 109 330 99 246 234 473 414 695 53 65 249 266 302 310 104
85 134 108 209 161 318 222 642 359 1020 433 25 5 69 12 99 16 30 4 63 8 74
11 11 2 61 6 111 10 50 3 92 7 93 8 5 5 262 -1 328 -8z"/>
<path d="M3697 5234 c-72 -25 -132 -79 -166 -149 -11 -22 -47 -177 -81 -345
-33 -168 -62 -314 -64 -325 -18 -90 -99 -494 -102 -510 -2 -11 -37 -186 -78
-390 -41 -203 -77 -381 -80 -395 -2 -14 -9 -47 -15 -75 -6 -27 -13 -61 -15
-75 -5 -28 -24 -125 -30 -155 -22 -107 -67 -335 -72 -358 -3 -17 -7 -33 -9
-36 -2 -4 -6 -25 -9 -47 -4 -22 -9 -51 -12 -64 -57 -268 -58 -307 -14 -396 77
-156 262 -209 412 -118 74 45 123 126 142 234 8 44 8 48 40 200 14 69 27 137
30 153 3 15 7 35 10 45 3 9 7 33 10 52 3 19 26 134 50 255 25 121 47 231 50
245 8 46 68 345 71 360 4 17 63 314 69 345 2 11 15 76 30 145 14 69 27 136 30
150 2 14 7 36 10 50 3 14 8 36 10 50 2 14 7 36 10 50 3 14 8 36 10 50 2 14 36
185 76 380 39 195 71 379 71 408 -1 188 -204 328 -384 266z"/>
<path d="M2417 4659 c-20 -5 -54 -17 -75 -28 -21 -11 -242 -223 -506 -487
-348 -349 -474 -481 -494 -519 -37 -71 -37 -179 0 -250 19 -37 149 -173 494
-519 523 -523 518 -519 644 -520 166 -1 303 146 287 307 -7 73 -13 94 -36 130
-11 18 -176 188 -367 380 l-348 348 356 357 c247 248 362 369 374 397 11 26
17 68 18 120 1 68 -3 87 -26 131 -62 117 -195 181 -321 153z"/>
<path d="M4450 4656 c-172 -45 -265 -229 -198 -389 22 -52 64 -98 379 -413
l353 -354 -355 -358 c-234 -235 -362 -371 -374 -397 -12 -24 -20 -68 -22 -111
-2 -60 2 -80 26 -130 50 -106 145 -167 261 -168 125 0 121 -3 647 523 433 433
501 508 509 561 18 102 9 166 -31 230 -12 19 -231 244 -486 499 -497 498 -508
507 -615 515 -27 2 -69 -2 -94 -8z"/>
</g>
</svg>
